<?xml version="1.0" encoding="utf-8"?>
<!-- Generator: Adobe Illustrator 16.0.0, SVG Export Plug-In . SVG Version: 6.00 Build 0)  -->
<!DOCTYPE svg PUBLIC "-//W3C//DTD SVG 1.1//EN" "http://www.w3.org/Graphics/SVG/1.1/DTD/svg11.dtd">
<svg version="1.1" id="Layer_1" xmlns="http://www.w3.org/2000/svg" xmlns:xlink="http://www.w3.org/1999/xlink" x="0px" y="0px"
	 width="148.27px" height="148.27px" viewBox="0 0 148.27 148.27" enable-background="new 0 0 148.27 148.27" xml:space="preserve">
<g>
	<circle fill="#6DCFF6" cx="74.135" cy="74.136" r="74.135"/>
	<path fill="#8DC63F" d="M58.839,20.04c0.182-0.047,0.485-0.312,0.714-0.377c0.371-0.104,0.438-0.04,0.729-0.285
		c0.292-0.247,0.494-0.657,0.706-0.968c0.233-0.339,0.74-0.532,0.799-0.948c0.06-0.429-0.457-0.867-0.741-1.141
		c-0.324-0.314-0.79-0.646-1.193-0.841c-0.274-0.132-0.468-0.082-0.728-0.162c-0.208-0.062-0.242-0.211-0.453-0.258
		c-0.466-0.104-0.979-0.13-1.452-0.226c-0.344-0.07-0.812-0.131-1.136-0.287c-0.887-0.424-1.002-1.262-1.009-2.103
		c-0.004-0.642-0.049-0.83,0.426-1.259c0.396-0.356,0.803-0.601,1.247-0.903c0.425-0.287,0.983-0.31,1.486-0.465
		c0.525-0.161,1.138-0.396,1.672-0.49c0.582-0.101,1.271,0.027,1.863,0.011c0.264-0.005,0.454,0.017,0.711-0.052
		c0.144-0.103,0.302-0.17,0.477-0.199c0.164,0.009,0.327,0.018,0.491,0.026c0.228-0.062,0.245-0.216,0.448-0.317
		c0.305-0.152,0.576-0.163,0.909-0.233c0.679-0.141,1.358-0.293,2.033-0.413c0.307-0.052,0.597-0.229,0.896-0.263
		c0.339-0.037,0.585,0.142,0.903,0.203c0.854,0.168,1.81,0.059,2.68,0.049c0.98-0.013,2.766,0.123,3.416,0.942
		c0.226,0.284,0.281,1.123,0.18,1.462c-0.148,0.493-0.607,0.49-0.98,0.699c-0.742,0.415-1.745,1.226-1.252,2.161
		c0.201,0.381,0.625,0.597,1.008,0.778c0.667,0.318,1.478,0.418,2.21,0.411c1.334-0.013,2.666,0.001,4,0.001h2.166
		c0.522,0,1.426-0.174,1.924-0.018c0.416,0.133,0.703,0.861,0.943,1.219c0.272,0.407,0.512,0.662,0.945,0.889
		c1.303,0.683,2.892,0.413,4.279,0.82c0.219,0.898-0.07,1.834,1.167,1.873c0.501,0.016,1.11,0.118,1.503-0.233
		c0.098-0.087,0.336-0.414,0.413-0.541c0.04-0.139,0.073-0.279,0.099-0.42c0.127-0.162,0.256-0.318,0.392-0.47
		c0.359-0.863-0.366-2.129,0.273-2.884c0.243-0.288,0.551-0.312,0.903-0.525c0.408-0.247,0.873-0.522,1.305-0.61
		c0.443-0.091,0.918-0.056,1.381-0.053c0.568,0.003,0.9-0.138,1.434-0.252c0.439-0.093,0.981,0.042,1.434,0.017
		c0.355-0.018,1.435-0.164,1.635-0.459c0.374-0.549-0.072-1.325-0.437-1.695c-0.514-0.52-1.024-1.087-1.45-1.676
		c-0.758-1.048-1.576-1.68-2.854-2.092C96.699,7.271,95.94,7,95.256,6.94c-0.535-0.048-1.503,0.242-1.984,0.027
		c-0.689-0.309,0.412-1.228,0.797-1.467c0.74-0.459,1.641-0.912,2.533-0.951c0.73-0.031,1.434-0.192,2.143-0.349
		C91.04,1.49,82.764,0,74.134,0c-17.49,0-33.553,6.07-46.23,16.201c0.421,0.175,0.785,0.3,1.089,0.783
		c0.572,0.91,0.614,1.993,0.997,2.872c0.169,0.393,0.222,0.781,0.413,1.187c0.267,0.569,0.716,0.773,1.266,1.021
		c1.121,0.502,2.82,0.171,4.06,0.173c0.488,0.001,0.841,0.03,1.249-0.173c0.513-0.256,0.792-0.316,1.377-0.304
		c0.489,0.009,0.75-0.149,1.191-0.238c0.253-0.051,0.472-0.123,0.722-0.186c0.291-0.075,0.645,0.036,0.908-0.101
		c0.292-0.151,0.456-0.519,0.757-0.674c0.116-0.059,0.405-0.101,0.543-0.168c0.17-0.083,0.351-0.276,0.539-0.369
		c0.415-0.205,0.874-0.436,1.312-0.598c0.571-0.21,1.106-0.201,1.671-0.347c1.141-0.292,2.382-0.185,3.588-0.185
		c0.437,0,1.006-0.103,1.428-0.018c0.567,0.114,0.897,0.709,1.428,0.921c0.97,0.387,2.13,0.535,3.169,0.531
		C56.726,20.321,57.787,20.316,58.839,20.04z M30.903,74.065c-0.079-0.235-0.24-0.351-0.371-0.538
		c-0.099-0.144-0.242-0.496-0.338-0.598c-0.367-0.387-0.961-0.396-1.405-0.525c-0.327-0.095-0.687-0.353-0.995-0.431
		c-0.871-0.217-1.471-0.652-2.284-1.074c-0.758-0.394-1.766-0.505-2.38-1.188c-0.643-0.714-0.575-1.705-1.442-2.346
		c-0.296-0.22-0.18-0.087-0.529-0.221c-0.031-0.013-0.507-0.182-0.532-0.186c-0.53-0.113-0.879-0.032-1.38,0.126
		c-0.466,0.147-0.959,0.476-1.431,0.549c-0.229,0.036-0.435-0.005-0.665,0.042c-0.261,0.054-0.407,0.212-0.771,0.19
		c-0.537-0.033-0.934-0.322-1.437-0.489c-0.473-0.157-0.746-0.172-1.023-0.704c-0.318-0.613-0.486-1.75-1.169-2.107
		c-0.645-0.337-1.671,0.23-2.168,0.602c-0.396,0.298-0.41,0.403-0.883,0.542c-0.583,0.171-0.793-0.094-1.267-0.408
		c-0.37-0.248-0.666-0.599-1.128-0.735c-0.417-0.124-1.024,0.162-1.212-0.269c-0.137-0.317,0.018-1.093,0.018-1.452v-1.672
		c0-0.425-0.115-1.024-0.018-1.431c0.143-0.593,0.695-0.792,1.212-1.022c0.438-0.192,0.951-0.25,1.438-0.179
		c0.441,0.065,0.22-0.014,0.479,0.237c0.197,0.191,0.202,0.318,0.473,0.482c0.281,0.17,0.725,0.361,1.007,0.427
		c0.166,0.039,0.484-0.018,0.617,0.087c0.167,0.131,0.216,0.461,0.345,0.634c0.161,0.218,0.56,0.692,0.854,0.495
		c0.19-0.126,0.06-1.398,0-1.601c-0.13-0.023-0.261-0.053-0.389-0.087c-0.03-0.128-0.062-0.256-0.093-0.384
		c-1.836-0.144-1.748-3.14-0.621-4.055c0.28-0.227,1.024-0.44,1.384-0.596c0.446-0.193,0.948-0.394,1.433-0.417
		c0.222-0.012,0.513,0.07,0.729,0.017c0.217-0.052,0.236-0.213,0.453-0.264c0.619-0.146,0.785,0.101,1.265-0.405
		c0.29-0.303,0.475-0.419,0.837-0.598c0.289-0.141,0.757-0.291,1.015-0.458c0.737-0.485,0.621-2.262,0.426-3.063
		c-0.111-0.451-0.373-0.745-0.431-1.189c-0.059-0.458,0.006-0.975,0.006-1.439c0-0.427,0.114-1.028,0.017-1.439
		c-0.105-0.446-0.6-0.673-0.792-1.13c-0.385-0.917,0.11-1.513,0.311-2.447c0.211-0.992-0.206-2.113,0.041-3.105
		c0.123-0.497,0.389-0.914,0.428-1.433c0.05-0.664-0.091-0.581-0.547-0.89c-0.405-0.279-0.418-0.564-0.411-1.023
		c0.008-0.587-0.018-0.92-0.243-1.419c-0.473-1.057-0.653-1.785-1.668-2.459c-0.391-0.259-0.823-0.529-1.239-0.814
		C5.364,42.5,0,57.689,0,74.136c0,14.774,4.339,28.524,11.787,40.085c0.676-0.761,0.771-1.879,0.771-2.836
		c0.001-2.011-0.313-4.348,0.185-6.264c0.126-0.477-0.013-0.957,0.049-1.438c0.052-0.409,0.227-0.647,0.417-1.004
		c0.471-0.878,1.248-1.513,1.797-2.323c0.312-0.462,0.312-0.905,0.472-1.391c0.117-0.354,0.342-0.607,0.425-0.992
		c0.128-0.6,0.229-1.111,0.47-1.689c0.107-0.255,0.191-0.541,0.427-0.733c0.335-0.272,0.333-0.136,0.775-0.208
		c0.63-0.103,1.416-0.388,1.938-0.738c0.197-0.133,0.334-0.355,0.501-0.475c0.172-0.125,0.475-0.158,0.61-0.275
		c0.419-0.363,0.513-0.787,1.008-1.087c0.422-0.254,0.613-0.667,1.003-0.962c0.474-0.359,0.928-0.635,1.391-1.027
		c0.432-0.361,0.646-0.354,1.137-0.518c0.312-0.105,0.673-0.351,1.003-0.483c0.271-0.112,0.467-0.098,0.723-0.168
		c0.368-0.103,0.616-0.374,0.954-0.558c0.847-0.463,1.447-1.088,1.433-2.083c-0.014-0.971-0.179-2.154-0.012-3.104
		c0.172-0.973,0.504-1.904,0.736-2.867c0.218-0.896,0.337-1.809,0.71-2.614c0.402-0.868,0.239-1.935,0.239-2.879
		C30.951,75.053,31.046,74.495,30.903,74.065z M145.959,55.711c-0.542,0.202-1.086,0.395-1.621,0.461
		c-0.558,0.071-1.275,0.022-1.84-0.012c-0.716-0.043-1.803-0.594-2.21-1.193c-0.299-0.442-0.319-0.688-0.89-0.733
		c-0.764-0.061-1.039,0.642-1.265,1.257c-0.215,0.584-0.062,1.045-0.161,1.619c-0.099,0.55-0.257,0.899-0.252,1.488
		c0.002,0.605-0.094,1.278,0.053,1.862c0.141,0.562,0.469,1.106,0.609,1.667c0.289,1.157,0.053,2.622,0.053,3.821
		c0,1.015-0.246,2.373,0.048,3.344c0.124,0.41,0.411,0.89,0.604,1.248c0.248,0.462,0.327,0.886,0.484,1.38
		c0.076,0.237,0.146,0.464,0.223,0.687c-0.305-0.123-0.531-0.263-0.833-0.455c-0.634-0.405-0.618-0.464-0.817-1.135
		c-0.118-0.404-0.48-0.851-0.665-1.247c-0.333-0.71-0.769-0.763-1.44-1.128c-0.581-0.316-0.474-0.656-0.469-1.26
		c0.005-0.63-0.053-1.072,0.299-1.62c0.205-0.317,0.432-0.718,0.65-1.008c0.551-0.727,1.208-1.662,1.199-2.681
		c-0.006-0.754,0.043-1.286-0.518-1.856c-0.478-0.484-1.159-0.669-1.582-1.202c-0.523-0.66-0.287-1.791-0.287-2.62
		c0-0.902,0.305-2.401-0.467-3.056c-0.432-0.368-1.153-0.153-1.408-0.761c-0.145-0.343-0.086-1.073-0.041-1.443
		c0.118-0.976,1.238-1.207,2.101-0.903c0.851,0.299,1.216,1.159,2.204,1.146c0.499-0.006,1.205-0.126,1.686-0.011
		c0.214,0.052,0.234,0.213,0.451,0.264c0.234,0.054,0.51-0.086,0.742-0.023c0.406,0.108,0.744,0.552,1.181,0.68
		c0.44,0.13,0.976,0.048,1.433,0.048c0.527,0,1.184,0.068,1.811,0.061c-3.686-12.032-10.354-22.752-19.137-31.319
		c-0.443,0.12-0.826,0.129-1.363,0.194c-0.346,0.042-0.613,0.21-0.955,0.265c-0.289,0.044-0.609-0.035-0.902-0.018
		c-0.521,0.029-1.18,0.213-1.66,0.418c-0.594,0.252-1.021,0.307-1.665,0.303c-1.169-0.007-2.178,0.24-3.356,0.24
		c-0.98,0-1.947-0.075-2.814,0.287c-0.494,0.205-0.639,0.419-1.246,0.429c-0.58,0.01-1.182,0.051-1.752-0.053
		c-0.124-0.082-0.258-0.148-0.397-0.199c-0.159,0.008-0.319,0.017-0.478,0.031c-0.354-0.061-0.457-0.219-0.664-0.49
		c-0.332-0.44-0.572-0.954-0.828-1.444c-0.529-1.003-1.487-0.95-2.516-0.95c-1.055,0-2.107,0.006-3.158,0
		c-0.558-0.004-0.92,0.059-1.439,0.246c-0.404,0.147-0.75,0.149-1.189,0.219c-1.102,0.176-1.577,0.848-1.438,1.929
		c0.055,0.432,0.344,0.713,0.255,1.19c-0.079,0.428-0.29,1.059-0.489,1.444c-0.55,1.064-2.051,0.009-2.76-0.436
		c-0.973-0.61-1.602-0.609-2.547-0.124c-0.551,0.284-0.676,0.866-1.135,1.217c-0.076,0.058-0.438,0.167-0.539,0.221
		c-0.234,0.124-0.41,0.214-0.664,0.304c-0.881,0.316-1.867,0.717-2.678,1.129c-0.695,0.354-0.67,0.509-0.664,1.26
		c0.002,0.436-0.104,1.003-0.018,1.426c0.159,0.775,0.609,1.08,1.344,0.908c0.232-0.055,0.309-0.158,0.578-0.189
		c0.229-0.027,0.49,0.005,0.723,0.004c1.127-0.004,2.164,0.328,3.11,0.957c0.495,0.328,0.679,0.593,0.717,1.191
		c0.015,0.253-0.054,0.999-0.286,1.154c-0.359,0.242-0.498-0.124-0.729-0.15c-0.313-0.032-0.354-0.001-0.67,0.135
		c-0.396,0.168-0.811,0.247-1.141,0.529c-0.387,0.33-0.361,0.801-0.564,1.204c-0.27,0.536-0.742,0.528-1.162,0.706
		c-0.505,0.215-0.826,0.25-1.426,0.245c-0.164-0.001-0.59-0.08-0.734-0.018c-0.287,0.125-0.141,0.184-0.279,0.438
		c-0.178,0.324-0.383,0.53-0.604,0.827c-0.237,0.317-0.201,0.687-0.516,0.908c-0.238,0.168-0.655,0.307-0.918,0.478
		c-0.275,0.179-0.107,0.264-0.524,0.25c-0.403-0.013-0.776-0.381-1.022-0.669c-0.439-0.517-0.414-1.664-1.182-1.94
		c-0.224-0.079-1.127,0.349-1.332,0.498c-0.27,0.196-0.619,0.583-0.725,0.896c-0.145,0.436-0.014,0.94-0.098,1.384
		c0.014-0.078-0.236,0.636-0.175,0.537c-0.159,0.255-0.267,0.226-0.497,0.459c-0.423,0.429-0.783,1.048-1.187,1.504
		c-0.202,0.229-0.671,0.588-0.735,0.891c-0.156,0.766,0.996,1.5,1.504,1.852c0.569,0.394,0.896,1.008,1.62,1.025
		c0.49,0.013,0.985,0.092,1.444,0.228c0.828,0.241,1.062,0.904,1.594,1.505c0.575,0.652,1.203,1.294,1.971,1.613
		c0.779,0.325,1.736,0.233,2.634,0.233c0.895,0,1.925,0.091,2.567-0.54c0.435-0.427,0.217-0.492,0.115-0.948
		c-0.109-0.48-0.064-0.793,0.126-1.2c0.187-0.391,0.257-0.318,0.548-0.644c0.186-0.208,0.117-0.526,0.268-0.684
		c0.334-0.35,0.998-0.458,1.393-0.757c0.521-0.395,0.85-0.528,1.486-0.722c0.568-0.175,1.072-0.266,1.67-0.245
		c0.339,0.012,0.876,0.019,1.16,0.239c0.283,0.219,0.168,0.072,0.227,0.476c0.066,0.458-0.128,1.001-0.021,1.444
		c0.203,0.863,1.637,1.155,2.368,1.224c0.114,0.449-0.077,0.635-0.147,0.974c-0.078,0.362-0.006,0.729-0.107,1.086
		c-0.231,0.807-1.125,0.864-1.578,1.488c-0.191,0.264-0.005,0.304-0.268,0.542c-0.159,0.055-0.309,0.134-0.442,0.234
		c-0.272,0.222-0.394,0.538-0.706,0.728c-0.451,0.274-1.666,0.311-2.221,0.181c-0.193-0.045-0.275-0.182-0.457-0.258
		c-0.152,0.036-0.299,0.022-0.438-0.041c-0.322-0.195-0.311-0.675-0.572-0.873c-0.387-0.291-1.848-0.035-2.342-0.035
		c-0.801,0-1.379-0.07-2.098-0.292c-0.299-0.09-0.691-0.35-1.008-0.49c-0.404-0.18-0.789-0.165-1.193-0.347
		c-0.783-0.353-1.586-0.366-2.389-0.716c-0.348-0.151-0.715-0.294-1.021-0.479c-0.381-0.228-0.375-0.311-0.891-0.302
		c-0.371,0.004-0.834-0.086-1.193-0.014c-0.354,0.072-0.707,0.357-1.008,0.436c-0.775,0.198-1.543,0.182-2.342,0.287
		c-0.366,0.049-0.588,0.172-0.945,0.245c-0.348,0.069-0.838,0.083-1.152,0.291c-0.227,0.15-0.409,0.43-0.523,0.651
		c-0.272,0.521-0.25,0.56-0.725,0.902c-0.262,0.189-0.801,0.721-0.915,1.02c-0.147,0.386,0.049,0.611-0.321,0.903
		c-0.252,0.201-0.833,0.312-1.146,0.472c-0.32,0.165-0.597,0.255-0.938,0.357c-0.506,0.152-0.98,0.062-1.469,0.167
		c-0.256,0.057-0.442,0.21-0.7,0.265c-0.231,0.047-0.486-0.064-0.718-0.024c-0.287,0.05-0.542,0.224-0.82,0.311
		c-0.602,0.188-1.234,0.277-1.811,0.465c-0.212,0.069-0.353,0.321-0.527,0.384c-0.238,0.085-0.423-0.003-0.663,0.034
		c-0.549,0.087-1.186,0.528-1.676,0.789c-0.55,0.292-0.535,0.375-0.705,0.891c-0.164,0.494-0.537,0.943-0.676,1.438
		c-0.136,0.474-0.159,0.957-0.339,1.435c-0.15,0.399-0.307,0.725-0.425,1.141c-0.083,0.292-0.126,0.503-0.293,0.768
		c-0.264,0.418-0.538,1.051-0.891,1.38c-0.768,0.721-1.678,1.141-2.634,1.554c-1.157,0.5-2.744,0.249-3.3,1.659
		c-0.365,0.924-0.037,2.63,0.183,3.541c0.249,1.024,0.553,1.81,1.494,2.325c0.932,0.509,1.885,0.812,2.282,1.95
		c0.256,0.737,0.321,1.573,0.472,2.331c0.196,0.983,0.35,1.96,0.597,2.937c0.385,1.529,0.526,4.121,2.145,4.842
		c1.372,0.61,2.829,0.889,4.31,0.891c0.612,0,1.234-0.028,1.846-0.005c0.688,0.024,1.269,0.257,1.969,0.244
		c1.628-0.032,2.958,0.696,4.194,1.672c0.576,0.454,1.203,0.913,1.724,1.427c0.496,0.492,0.707,1.19,1.121,1.654
		c0.28-0.488,1.93-0.211,2.409-0.215c0.532-0.004,0.995-0.033,1.497,0.182c0.445,0.189,0.343,0.182,0.691,0.543
		c0.492,0.506,1.049,0.791,1.447,1.42c0.285,0.451,0.197,0.684,0.229,1.199c0.021,0.371,0.191,0.603,0.254,0.955
		c0.137,0.773-0.221,1.429-0.254,2.15c-0.041,0.816-0.191,1.431-0.528,2.191c-0.417,0.936-0.665,1.564-0.663,2.572
		c0.003,0.443-0.104,1.025-0.012,1.459c0.057,0.256,0.283,0.359,0.293,0.658c0.893,0.008,0.67,0.844,0.674,1.475
		c0.008,0.748-0.145,1.084-0.535,1.67c-0.652,0.975-0.805,2.115-1.426,3.112c-0.406,0.648-0.425,0.898-0.427,1.671v1.674
		c0,1.021-0.202,2.312,0.054,3.29c0.131,0.495,0.581,0.989,0.674,1.54c0.113,0.666-0.034,1.408-0.191,2.041
		c-0.305,1.24-1.057,2.307-2.207,2.861c-0.252,0.121-0.541,0.398-0.77,0.49c-0.211,0.084-0.4,0.01-0.611,0.094
		c-0.404,0.162-1.004,0.586-1.307,0.896c-0.32,0.33-0.298,0.594-0.463,0.969c-0.131,0.291-0.377,0.381-0.45,0.717
		c-0.127,0.59,0.285,0.885,0.298,1.392c0.454,0.071,0.572,0.019,0.854,0.392c0.129,0.17,0.151,0.437,0.346,0.562
		c0.14,0.059,0.281,0.068,0.432,0.029c0.318,0.137,0.283,0.253,0.529,0.443c0.139,0.049,0.279,0.082,0.425,0.1
		c0.341,0.18,0.632,0.404,0.962,0.604c0.73,0.439,1.469,0.646,2.312,0.769c1.238,0.184,2.359,0.646,3.646,0.498
		c0.624-0.072,1.223-0.18,1.852-0.238c0.641-0.061,1.354-0.256,1.976-0.426c0.538-0.147,1.11-0.208,1.625-0.357
		c0.165-0.049,0.411-0.295,0.579-0.365c0.91-0.379,1.689-0.867,2.561-1.32c0.857-0.443,1.658-0.412,2.588-0.412
		c0.889,0,1.787,0.044,2.674,0.006c0.819-0.037,1.474-0.576,1.984-1.152c0.245-0.278,0.565-0.358,0.842-0.584
		c0.298-0.244,0.494-0.616,0.758-0.896c0.504-0.537,0.869-1.233,1.375-1.737c0.504-0.502,1.316-0.833,1.916-1.183
		c0.328-0.189,0.626-0.503,1.014-0.615c0.301-0.088,0.602-0.041,0.903-0.102c0.03-0.004,0.487-0.17,0.53-0.185
		c0.15,0.042,0.293,0.024,0.424-0.055c0.117-0.022,0.361-0.151,0.525-0.185c0.168,0.035,0.328,0.017,0.483-0.053
		c0.698-0.173,1.388-0.607,2.108-0.705c0.078-0.514,0.427-0.926,0.532-1.38c0.112-0.474,0.035-1.274-0.185-1.696
		c-0.176-0.334-0.262-0.298-0.312-0.699c-0.027-0.221,0-0.497,0.008-0.721c0.022-0.615,0.263-0.873,0.43-1.434
		c0.094-0.319,0.026-0.627,0.102-0.95c0.077-0.339,0.149-0.546,0.184-0.913c0.05-0.523,0.268-0.787,0.537-1.236
		c0.307-0.504,0.426-0.878,0.598-1.438c0.119-0.378,0.209-1.253,0.777-1.194l-0.24-0.956c0.016-0.063,0.033-0.128,0.047-0.192
		c0.742-0.048,1.154-0.921,1.858-1.006c0.766-0.094,1.622-0.006,2.396,0.003c0.779,0.011,1.659-0.23,2.395-0.482
		c0.436-0.151,0.436-0.078,0.757-0.461c0.413-0.491,0.714-0.804,0.974-1.392c0.452-1.031,0.438-2.014,1.135-2.93
		c0.535-0.699,1.021-1.295,1.668-1.895c0.91-0.848,1.779-1.736,2.691-2.58c0.433-0.399,0.893-0.74,1.369-1.066
		c0.469-0.324,1.01-0.525,1.445-0.892c0.488-0.411,0.891-0.79,1.436-1.146c0.551-0.358,0.418-0.276,0.162-0.757
		c-0.18-0.338-0.266-0.857-0.645-0.985c-0.217-0.072-0.515,0.082-0.74,0.03c-0.127-0.016-0.221-0.081-0.279-0.193
		c-0.635-0.212-1.209-0.483-1.678-0.955c-0.631-0.635-1.044-1.127-1.857-1.552c-0.545-0.286-1.275-0.989-1.439-1.601
		c-0.219-0.812,0.15-1.593-0.227-2.413c-0.17-0.371-0.235-0.499-0.24-0.944c-0.002-0.49-0.168-0.779-0.25-1.246
		c-0.094-0.524,0.053-0.867-0.163-1.375c-0.239-0.562-0.49-1.124-0.728-1.682c-0.178-0.423-0.254-0.822-0.525-1.195
		c-0.211-0.29-0.355-0.366-0.488-0.699c-0.24-0.604-0.295-1.29-0.473-1.908c-0.33-1.145-0.644-2.421-0.721-3.603
		c-0.042-0.616,0.18-1.073,0.248-1.654c0.039-0.318-0.07-0.674-0.01-0.987c0.035-0.184,0.161-0.369,0.189-0.5
		c0.074-0.322-0.156-1.375,0.287-1.426c0.297-0.035,0.306,0.361,0.418,0.519c0.145,0.203,0.348,0.255,0.49,0.456
		c0.506,0.715,1.1,1.668,1.426,2.456c0.445,1.07,0.584,2.17,0.836,3.29c0.146,0.657,0.437,1.233,0.418,1.911
		c-0.012,0.511,0.121,0.955,0.294,1.435c0.372,1.037,1.571,1.753,1.622,2.864c0.104,2.134,0.004,4.303-0.004,6.438
		c-0.003,0.747-0.049,0.967,0.413,1.492c0.308,0.347,0.576,0.747,1.006,0.974c0.393,0.207,0.813,0.279,1.204,0.467
		c0.449,0.214,0.911,0.569,1.449,0.436c0.207-0.053,0.498-0.174,0.699-0.244c0.238-0.084,0.504-0.143,0.734-0.246
		c0.387-0.175,0.773-0.367,1.18-0.543c0.891-0.385,1.814-0.659,2.811-0.65c0.639,0.006,1.34-0.09,1.975-0.006
		c0.461,0.061,0.686,0.25,1.189,0.243c0.884-0.013,1.98,0.184,2.83-0.034c0.062-0.62,0.377-0.926,0.578-1.531
		c0.151-0.459,0.232-1.033,0.467-1.484c0.621-1.211,1.395-2.404,1.377-3.818c-0.002-0.307,0.002-0.613,0-0.922
		c0.67,0.32,1.326,0.572,2.157,0.637c0.403,0.031,0.816,0.025,1.229,0.014c0.305-2.732,0.477-5.504,0.477-8.319
		C148.27,67.776,147.467,61.602,145.959,55.711z"/>
	<path fill="#FFFFFF" d="M98.012,21.765c0.224,0.579,0.271,0.436,0.721,0.764c0.443,0.324,0.705,0.459,1.248,0.665
		c0.484,0.183,0.969,0.204,1.434,0.41c0.479,0.216,0.951,0.403,1.432,0.61c0.523,0.227,0.932,0.434,1.434,0.716
		c0.486,0.272,0.982,0.38,1.142,0.943c0.101,0.361,0.171,0.924-0.116,1.211c-0.223,0.222-0.281,0.082-0.547,0.169
		c-0.063,0.021-0.485,0.176-0.531,0.185c-0.232,0.048-0.434,0.019-0.669,0.048c-0.259,0.031-0.336,0.145-0.524,0.192
		c-0.6,0.154-0.815,0.083-0.908,0.762c-0.072,0.538,0.079,0.71,0.471,1.016c0.395,0.307,0.742,0.704,1.148,0.973
		c0.369,0.245,0.822,0.326,1.252,0.465c1.904,0.619,4.025,0.487,5.971,1.189c0.613,0.221,0.924,0.649,1.434,0.969
		c0.395,0.245,0.764,0.523,1.197,0.714c0.626,0.279,0.645,0.051,1.18-0.078c0.234-0.055,0.506,0.079,0.742,0.026
		c0.18-0.042,0.287-0.175,0.453-0.252c0.812-0.376,1.832-0.366,2.471-1.128c0.226-0.271,0.244-0.709,0.461-0.968
		c0.32-0.382,0.663-0.295,1.128-0.292c1.36,0.01,2.724,0,4.085,0c0.473,0,0.948-0.002,1.422,0c0.567,0.004,0.9-0.14,1.434-0.252
		c0.303-0.063,0.648,0.08,0.955,0.025c0.261-0.045,0.457-0.196,0.715-0.257c0.471-0.115,0.998-0.16,1.446-0.406
		c0.433-0.238,0.682-0.454,1.181-0.603c0.418-0.125,0.797-0.317,1.191-0.478c0.152-0.062,0.299-0.088,0.449-0.13
		c-6.164-8.012-13.926-14.728-22.814-19.668c-0.576,0.015-1.146,0.031-1.707,0.033c-0.566,0-0.944,0.045-1.469,0.185
		c-0.646,0.173-1.329-0.038-1.982,0.042c-0.43,0.052-0.754,0.235-1.188,0.257c-0.32,0.018-0.596-0.053-0.909,0.042
		c-0.454,0.137-0.8,0.486-1.181,0.729c-0.809,0.513-1.363,1.639-0.664,2.52c0.239,0.302,0.582,0.533,0.834,0.824
		c0.299,0.343,0.223,0.677,0.521,0.96c0.33,0.312,0.919,0.34,1.276,0.586c0.406,0.281,0.418,0.562,0.411,1.022
		c-0.005,0.427,0.205,1.374-0.219,1.636c-0.169,0.105-0.486,0.042-0.682,0.087c-0.139,0.033-0.34,0.15-0.525,0.187
		c-0.951,0.194-1.922,0.488-2.82,0.77c-0.223,0.07-0.503,0.308-0.769,0.371c-0.259,0.061-0.46,0.005-0.716,0.042
		c-0.55,0.077-0.877,0.409-0.729,0.98C97.676,20.95,97.861,21.379,98.012,21.765z M16.378,31.739
		c0.414,0.099,0.815,0.122,1.185,0.339c0.357,0.208,0.469,0.378,0.902,0.45c0.348,0.056,0.67-0.071,1.026,0.027
		c0.684,0.194,1.094,0.438,1.84,0.43c0.731-0.005,1.491-0.048,2.22-0.003c0.509,0.031,0.902,0.233,1.427,0.242
		c0.536,0.012,1.072,0.001,1.607,0.001c1.135,0,2.271-0.005,3.405,0c0.64,0.004,1.079-0.145,1.675-0.251
		c0.525-0.094,0.909-0.034,1.435-0.228c0.997-0.368,1.905-0.974,2.853-1.432c0.746-0.362,2.486-1.298,1.468-2.335
		c-0.342-0.349-1.162-0.638-1.628-0.834c-0.46-0.196-1.029-0.356-1.494-0.417c-0.916-0.121-1.944,0.001-2.871,0.004
		c-0.483,0.002-0.844,0.04-1.246-0.169c-0.549-0.284-0.903-0.883-0.634-1.508c0.274-0.634,1.361-0.665,1.938-0.711
		c0.657-0.053,1.188-0.244,1.867-0.238c1.123,0.011,2.247-0.008,3.371-0.002c0.693,0.004,1.223-0.208,1.869-0.243
		c0.475-0.027,0.958,0.014,1.434,0.003c0.525-0.01,0.921-0.219,1.427-0.244c0.625-0.032,1.319-0.08,1.917-0.218
		c0.463-0.108,0.992-0.305,1.432-0.487c0.352-0.146,0.377-0.276,0.664-0.496c0.167-0.128,0.372-0.149,0.531-0.266
		c0.499-0.371,1.639-1.635,0.979-2.179c-0.292-0.24-0.598-0.101-0.92-0.164c-0.337-0.065-0.682-0.161-1.012-0.245
		c-0.564-0.144-1.124-0.156-1.673-0.293c-0.729-0.181-2.123-0.279-2.4-1.129c-0.409-1.258,1.493-1.34,1.873-2.214
		c0.754-1.736-1.427-1.285-2.064-2.144c-0.191-0.257-0.036-1.062-0.036-1.38c0-0.525,0.118-1.181-0.05-1.682
		c-0.2-0.596-0.942-0.992-1.438-1.313c-0.449-0.293-0.971-0.592-1.503-0.861c-9.47,5.347-17.641,12.711-23.939,21.517
		c0.304-0.009,0.608-0.006,0.896,0.064C15.271,31.27,15.816,31.607,16.378,31.739z M144.354,92.461c-1.167,0-2.159-0.336-3.278-0.53
		c-1.01-0.175-2.328-0.395-3.361-0.132c-0.541,0.139-1.166,0.373-1.68,0.604c-0.779,0.352-1.373,0.441-2.202,0.591
		c-2.878,0.513-5.749,1.345-8.593,2.038c-0.549,0.133-1.074,0.348-1.613,0.482c-0.48,0.12-0.945,0.112-1.42,0.238
		c-0.59,0.157-1.099,0.072-1.685,0.293c-0.549,0.207-1.167,0.443-1.671,0.764c-0.48,0.305-0.854,0.826-0.967,1.386
		c-0.127,0.614,0.023,0.927,0.482,1.253c0.996,0.705,1.994,0.961,3.111,1.316c0.938,0.298,2.205,0.641,1.646,1.967
		c-0.24,0.574-1.385,0.833-1.9,1.023c-0.633,0.232-1.258,0.258-1.891,0.398c-0.523,0.115-0.875,0.266-1.44,0.258
		c-0.509-0.006-1.204-0.137-1.694-0.018c-0.35,0.084-0.564,0.231-0.932,0.256c-0.408,0.027-0.796-0.057-1.195,0.048
		c-1.406,0.368-2.955,0.413-4.312,1.075c-1.11,0.543-1.889,1.084-1.898,2.454c-0.005,0.896-0.31,1.458-1.142,1.865
		c-0.798,0.39-1.479,0.99-2.388,1.007c-0.74,0.016-1.489,0.092-2.208,0.219c-0.354,0.064-0.58,0.238-0.951,0.259
		c-0.393,0.022-0.799-0.003-1.193-0.005c-0.723-0.004-1.008,0.229-1.674,0.42c-0.682,0.195-1.82,1.021-2.111,1.73
		c-0.253,0.613,0.361,1.088,0.682,1.434c0.504,0.545,0.98,1.035,1.67,1.438c0.42,0.245,0.531,0.124,0.968,0.221
		c0.287,0.062,0.373,0.214,0.7,0.256c0.498,0.066,1.825,0.186,2.154-0.243l1.672,0.238c0.775-0.349,1.6-0.238,2.438-0.238h3.791
		c1.671,0,3.289-0.034,4.893,0.292c0.311,0.063,0.446,0.191,0.822,0.185c0.398-0.005,0.797,0.001,1.195,0.001
		c0.77,0,1.424-0.059,2.148-0.232c0.354-0.086,0.59-0.225,0.957-0.249c0.49-0.035,0.996,0.062,1.486,0.017
		c1.097-0.104,2.168-0.418,3.247-0.525c0.065-0.502,0.284-0.729,0.579-1.093c0.355-0.442,0.4-0.704,0.418-1.261
		c0.029-0.917-0.219-2.137,0.182-2.923c0.203-0.401,0.324-0.472,0.762-0.66c0.496-0.216,0.91-0.241,1.445-0.238
		c1.035,0.007,2.07,0,3.106,0c0.478,0,0.954,0.003,1.434,0c0.624-0.003,1.078,0.123,1.677,0.252
		c1.084,0.231,2.191,0.231,3.338,0.226c0.259-0.001,0.474,0.012,0.684,0.038c3.205-5.647,5.701-11.749,7.342-18.197
		C145.447,92.475,144.903,92.461,144.354,92.461z M74.613,52.998c-0.787-0.225-1.208-0.429-2.062-0.423
		c-1.147,0.004-2.295-0.013-3.443-0.003c-0.734,0.008-1.365-0.225-2.09-0.236c-0.536-0.008-1.072-0.001-1.608-0.001h-3.952
		c-1.033,0-1.943,0.033-2.8-0.479c-0.759-0.452-0.49-1.555-0.479-2.386c0.017-1.269-0.958-1.129-1.912-1.381
		c-0.605-0.161-1.256,0.078-1.862-0.041c-0.696-0.137-1.205-0.254-1.952-0.246c-0.858,0.01-1.5-0.261-2.213-0.663
		c-0.562-0.317-0.625-0.484-0.952-1.017c-0.308-0.502-0.472-0.859-0.612-1.433c-0.06-0.248-0.029-0.471-0.099-0.715
		c-0.072-0.255-0.311-0.462-0.384-0.717c-0.207-0.722-0.144-0.924-0.758-1.42c-0.385-0.312-0.705-0.816-1.188-0.975
		c-0.467-0.153-0.961-0.29-1.444-0.471c-0.47-0.176-0.959-0.303-1.434-0.425c-0.524-0.133-1.129-0.051-1.673-0.052
		c-0.228,0-0.496-0.035-0.721-0.005c-0.223,0.029-0.371,0.159-0.527,0.19c-0.683,0.14-2.449,0.226-2.775,1.004
		c-0.132,0.317-0.148,1.359-0.048,1.688c0.104,0.337,0.445,0.538,0.717,0.7c0.401,0.239,1.159,0.566,1.408,1.002
		c0.366,0.638-0.12,1.195-0.448,1.63c-0.324,0.429-0.527,0.851-0.889,1.255c-0.347,0.386-0.302,0.606-0.297,1.135
		c0.004,0.829-0.251,2.093-0.012,2.876c0.105,0.343,0.535,0.628,0.786,0.886c0.105,0.104,0.233,0.281,0.354,0.362
		c0.231,0.153,0.309,0.069,0.55,0.168c0.781,0.322,1.755,0.915,2.621,0.966c1.07,0.066,2.083-0.069,3.104,0.182
		c0.98,0.242,1.853,0.215,1.677,1.491c-0.178,1.295-1.052,1.125-2.155,1.185c-0.507,0.028-0.905,0.23-1.428,0.242
		c-0.641,0.016-1.284,0.001-1.928,0.001c-0.518,0-1.154-0.104-1.661-0.012c-0.283,0.052-0.479,0.214-0.769,0.265
		c-0.317,0.053-0.59-0.044-0.908,0.041c-0.317,0.083-0.413,0.171-0.764,0.19c-0.315,0.017-0.65-0.055-0.96-0.018
		c-0.581,0.071-1.017,0.24-1.614,0.252h-1.671l-0.042,0.198c-0.616,0.182-1.458,0.042-2.108,0.042c-0.314,0-0.644-0.026-0.956-0.005
		c-0.369,0.025-0.601,0.181-0.956,0.255c-0.69,0.146-1.456-0.141-2.15,0.042c-0.703,0.184-1.237,0.255-1.856,0.67
		c-0.542,0.364-0.798,0.783-0.065,1.249c0.261,0.165,0.696,0.512,0.967,0.614c0.287,0.107,0.608,0.035,0.902,0.095
		c0.256,0.051,0.42,0.189,0.772,0.184c0.318-0.003,0.637,0.002,0.954,0.002h1.906c0.375,0,0.851,0.09,1.212,0.012
		c0.258-0.055,0.442-0.216,0.703-0.264c0.491-0.088,1.122,0.013,1.62,0.013c1.497,0,2.993,0.004,4.49,0
		c1.15-0.004,2.175,0.262,3.206,0.774c0.832,0.415,2.235,0.688,1.921,1.866c-0.146,0.549-0.743,0.778-1.206,1.002
		c-0.49,0.239-0.867,0.527-1.246,0.89c-0.93,0.889-1.129,1.555-1.141,2.867c-0.014,1.473,0.708,2.445,1.905,3.158
		c1.225,0.729,2.25,1.852,3.653,2.293c0.587,0.184,1.22,0.333,1.84,0.292c0.602-0.039,1.116-0.253,1.73-0.243
		c1.189,0.018,2.425-0.363,3.543-0.784c0.466-0.174,0.946-0.357,1.416-0.417c0.538-0.071,1.146,0.004,1.688,0.004
		c0.461,0,0.971-0.062,1.426-0.004c0.451,0.055,0.733,0.292,1.138,0.542c0.495,0.306,0.962,0.466,1.484,0.703
		c0.705,0.317,0.41,0.497,1.004,0.012c0.405-0.328,0.975-0.413,1.398-0.708c0.395-0.276,0.675-0.706,0.997-1.027
		c0.394-0.396,0.845-0.655,1.201-1.122c0.302-0.399,0.545-0.842,0.836-1.261c0.825-1.188,0.874-2.802,1.729-3.963
		c0.296-0.403,0.762-0.662,1.197-0.875c0.469-0.229,0.821-0.555,1.247-0.834c0.196-0.13,0.506-0.199,0.676-0.347
		c0.224-0.191,0.269-0.451,0.451-0.675c0.397-0.488,0.878-0.443,0.742-1.188c-0.145-0.79-0.529-0.827-1.178-1.003
		c-0.553-0.149-1.088-0.345-1.645-0.49c-0.321-0.082-1.143-0.248-1.403-0.471c-1.014-0.869,0.439-1.74,1.11-2.03
		c0.693-0.3,1.377-0.599,2.095-0.848c0.568-0.198,1.151-0.254,1.739-0.42c0.618-0.175,1.31-0.41,1.904-0.756
		c0.257-0.15,0.794-0.519,0.978-0.736c0.236-0.281,0.16-0.293,0.213-0.638C75.512,53.436,75.315,53.197,74.613,52.998z
		 M51.784,106.737c-0.483-0.166-0.917-0.182-1.486-0.182c-0.917,0-1.918,0.102-2.808-0.054c-0.23-0.04-0.376-0.185-0.717-0.191
		c-0.292-0.008-0.492,0.029-0.775-0.047c-0.618-0.167-1.273-0.32-1.91-0.438c-0.461-0.084-0.955,0.046-1.422-0.039
		c-0.747-0.137-1.374-0.186-2.157-0.186c-0.856,0-1.735,0.061-2.589,0.005c-0.46-0.028-0.784-0.304-1.178-0.537
		c-0.447-0.263-0.71-0.331-1.2-0.478c-0.101-0.029-0.406-0.195-0.525-0.244c-0.243-0.098-0.519-0.094-0.733-0.174
		c-0.916-0.345-0.931-1.678-0.42-2.398c0.258-0.367,0.786-0.505,0.921-0.941c0.134-0.432-0.072-1.071-0.251-1.456
		c-0.202-0.437-0.241-0.663-0.239-1.182c0.002-0.229-0.034-0.495-0.005-0.721c0.045-0.339,0.159-0.401,0.251-0.698
		c0.132-0.428,0.328-1.002,0.422-1.445c0.153-0.726-0.395-0.695-0.907-1.01c-0.27-0.165-0.388-0.382-0.715-0.444
		c-0.244-0.046-0.461,0.032-0.718-0.035c-0.587-0.149-1.049-0.147-1.671-0.18c-0.516-0.028-0.899-0.253-1.434-0.243
		c-0.544,0.012-0.925-0.047-1.432-0.24c-0.48-0.183-0.931-0.299-1.379-0.543c-0.381-0.207-0.672-0.49-1.052-0.711
		c-0.51-0.296-1.065-0.388-1.63-0.412c-0.515-0.021-0.9-0.252-1.434-0.243c-1.08,0.015-2.081,0.034-3.105,0.291
		c-0.881,0.22-1.798,0.386-2.621,0.722c-0.462,0.189-0.771,0.238-1.187,0.479c-0.566,0.329-1.132,0.316-1.686,0.586
		c-1.067,0.522-2.248,1.463-2.4,2.711c-0.038,0.314-0.112,1.159,0.046,1.434c0.106,0.184,0.462,0.34,0.63,0.465
		c0.26,0.195,0.417,0.389,0.758,0.538c1.934,0.841,4.603,0.418,6.698,0.418c0.955,0,1.91,0.014,2.865,0.001
		c0.521-0.008,0.534,0.096,0.944,0.303c0.464,0.235,0.978,0.271,1.445,0.4c1.047,0.289,1.684,1.154,1.672,2.215
		c-0.004,0.338,0.17,1.297-0.042,1.578c-0.04,0.055-0.414,0.151-0.502,0.215c-0.131,0.095-0.212,0.277-0.347,0.368
		c-0.312,0.212-0.655,0.184-1.02,0.348c-0.418,0.189-0.858,0.356-1.248,0.485c-0.738,0.242-1.762,0.387-1.863,1.247
		c-0.103,0.88-0.136,1.755,0.774,2.107c0.211,0.082,0.402,0.009,0.612,0.095c0.181,0.073,0.304,0.307,0.524,0.384
		c0.37,0.126,1.032,0.114,1.397,0.007l0.042-0.199l0.718,0.479H28.8c0.463,0,0.937,0.043,1.38-0.053
		c0.378-0.081,0.971-0.398,1.439-0.138c0.461,0.257,0.374,0.774,0.519,1.157c0.125,0.334,0.396,0.531,0.542,0.886
		c0.144,0.35,0.193,0.663,0.48,0.952c0.433,0.439,0.812,0.207,1.372,0.354c0.929,0.244,1.626,0.424,2.627,0.424
		c1.265,0,2.632,0.143,3.821-0.185c0.855-0.235,1.978-0.052,2.867-0.053c0.553,0,0.921-0.054,1.433-0.187
		c0.528-0.139,1.091,0,1.62-0.107c0.029-0.004,0.482-0.162,0.524-0.179c0.241-0.085,0.486-0.153,0.724-0.245
		c0.478-0.186,0.987-0.102,1.431-0.274c0.306-0.118,0.419-0.503,0.718-0.642c0.271-0.125,0.447-0.105,0.721-0.271
		c0.195-0.117,0.36-0.289,0.538-0.423c0.259-0.196,0.345-0.216,0.646-0.354c0.533-0.245,0.786-0.341,1.018-0.843
		c0.14-0.302,0.349-0.876,0.223-1.259C53.287,107.021,52.23,106.888,51.784,106.737z"/>
	<circle opacity="0.2" fill="#FFFFFF" cx="78.995" cy="69.273" r="63.804"/>
	<circle opacity="0.2" fill="#FFFFFF" cx="86.155" cy="62.114" r="49.353"/>
</g>
</svg>
