<?xml version="1.0" encoding="utf-8"?>
<!-- Generator: Adobe Illustrator 16.0.0, SVG Export Plug-In . SVG Version: 6.00 Build 0)  -->
<!DOCTYPE svg PUBLIC "-//W3C//DTD SVG 1.1//EN" "http://www.w3.org/Graphics/SVG/1.1/DTD/svg11.dtd">
<svg version="1.1" id="Layer_1" xmlns="http://www.w3.org/2000/svg" xmlns:xlink="http://www.w3.org/1999/xlink" x="0px" y="0px"
	 width="211.849px" height="211.849px" viewBox="0 0 211.849 211.849" enable-background="new 0 0 211.849 211.849"
	 xml:space="preserve">
<g>
	<g>
		<path fill="#E6A361" d="M211.849,105.926c0,58.5-47.423,105.923-105.925,105.923C47.423,211.849,0,164.426,0,105.926
			C0,47.423,47.423,0,105.924,0C164.426,0,211.849,47.423,211.849,105.926z"/>
	</g>
	<g>
		<path fill="#ECBA88" d="M100.71,38.226c5.521,0,9.996-4.476,9.996-9.996c0-5.521-4.475-9.996-9.996-9.996H46.5
			c-8.253,5.603-15.67,12.343-22.034,19.992H100.71z"/>
		<path fill="#ECBA88" d="M208.42,132.757h-42.653c-5.521,0-9.996,4.476-9.996,9.996c0,5.521,4.476,9.997,9.996,9.997h35.293
			C203.773,146.381,206.991,139.695,208.42,132.757z"/>
	</g>
	<path fill="#ECBA88" d="M105.24,114.759H59.92c-2.53,0-4.58-2.05-4.58-4.579s2.05-4.579,4.58-4.579h12.355
		c5.56,0,10.065-4.506,10.065-10.064c0-5.561-4.505-10.067-10.065-10.067H1.993C0.697,92.091,0,98.925,0,105.926
		c0,4.908,0.363,9.729,1.008,14.459H105.24c1.551,0,2.812-1.26,2.812-2.813S106.791,114.759,105.24,114.759z"/>
	<path fill="#DD8328" d="M154.037,155.18H105.84c-2.913,0-5.281-2.369-5.281-5.281c0-2.913,2.368-5.281,5.281-5.281h4.735
		c4.113,0,7.459-3.348,7.459-7.46c0-4.113-3.346-7.458-7.459-7.458H2.712c5.45,23.751,18.874,44.445,37.318,59.127h85.399
		c4.113,0,7.457-3.348,7.457-7.459c0-4.113-3.344-7.459-7.457-7.459h-9.656c-2.912,0-5.282-2.369-5.282-5.282s2.37-5.28,5.282-5.28
		h38.264c2.252,0,4.084-1.832,4.084-4.083S156.289,155.18,154.037,155.18z"/>
	<path fill="#DD8328" d="M124.404,47.93c0,2.48,2.011,4.493,4.492,4.493h20.311c3.363,0,6.088,2.724,6.088,6.085
		c0,3.364-2.725,6.088-6.088,6.088h-47.391c-6.35,0-11.499,5.148-11.499,11.5c0,6.35,5.149,11.498,11.499,11.498h33.852
		c3.361,0,6.088,2.727,6.088,6.087c0,3.361-2.727,6.086-6.088,6.086H122.22c-2.481,0-4.493,2.011-4.493,4.493
		c0,2.482,2.012,4.495,4.493,4.495h89.557c0.025-0.943,0.072-1.88,0.072-2.828c0-23.375-7.589-44.97-20.411-62.488h-62.541
		C126.415,43.438,124.404,45.448,124.404,47.93z"/>
	<circle opacity="0.1" fill="#FFFFFF" cx="112.87" cy="98.978" r="91.165"/>
	<circle opacity="0.1" fill="#FFFFFF" cx="123.1" cy="88.749" r="70.515"/>
</g>
</svg>
