<?xml version="1.0" encoding="utf-8"?>
<!-- Generator: Adobe Illustrator 16.0.0, SVG Export Plug-In . SVG Version: 6.00 Build 0)  -->
<!DOCTYPE svg PUBLIC "-//W3C//DTD SVG 1.1//EN" "http://www.w3.org/Graphics/SVG/1.1/DTD/svg11.dtd">
<svg version="1.1" id="Layer_1" xmlns="http://www.w3.org/2000/svg" xmlns:xlink="http://www.w3.org/1999/xlink" x="0px" y="0px"
	 width="109.487px" height="109.488px" viewBox="0 0 109.487 109.488" enable-background="new 0 0 109.487 109.488"
	 xml:space="preserve">
<g>
	<circle fill="#F15B40" cx="54.744" cy="54.745" r="54.744"/>
	<path fill="#F37053" d="M109.451,53.307c-0.307-11.825-4.348-22.718-11.009-31.533C88.102,33.072,81.955,49.839,109.451,53.307z
		 M44.774,82.311c-20.949,5.16-0.838-14.377-6.38-21.709c-4.126-5.461-21.456-4.064-37.909,1.33
		c1.95,14.871,9.858,27.863,21.264,36.492c14.424-8.854,28.816-4.682,48.096,8.938c6.825-1.955,13.089-5.221,18.537-9.477
		c-12.258-4.396-21.523-11.281-18.471-17.803c3.435-7.34,19.68-5.945,33.802-0.94c1.961-3.929,3.492-8.114,4.466-12.513
		C66.524,47.75,64.117,77.547,44.774,82.311z M35.675,22.475c0,7.333-23.791,23.253,5.747,25.348
		c29.538,2.095,37.496-6.495,30.792-15.921C66.562,23.95,56.14,10.249,73.129,3.174C67.382,1.125,61.195,0,54.745,0
		c-16.67,0-31.588,7.458-41.626,19.208C25.313,17.413,35.675,17.432,35.675,22.475z"/>
	<path opacity="0.1" fill="#FFFFFF" d="M105.448,51.153c0,26.022-21.094,47.117-47.113,47.117
		c-26.024,0-47.118-21.095-47.118-47.117c0-26.021,21.094-47.115,47.118-47.115C84.354,4.039,105.448,25.133,105.448,51.153z"/>
	<circle opacity="0.1" fill="#FFFFFF" cx="63.62" cy="45.867" r="36.444"/>
</g>
</svg>
