<?xml version="1.0" encoding="utf-8"?>
<!-- Generator: Adobe Illustrator 16.0.0, SVG Export Plug-In . SVG Version: 6.00 Build 0)  -->
<!DOCTYPE svg PUBLIC "-//W3C//DTD SVG 1.1//EN" "http://www.w3.org/Graphics/SVG/1.1/DTD/svg11.dtd">
<svg version="1.1" id="Layer_1" xmlns="http://www.w3.org/2000/svg" xmlns:xlink="http://www.w3.org/1999/xlink" x="0px" y="0px"
	 width="77.094px" height="77.104px" viewBox="0 0 77.094 77.104" enable-background="new 0 0 77.094 77.104" xml:space="preserve">
<g>
	<circle fill="#D6A477" cx="38.565" cy="38.565" r="38.565"/>
	<g>
		<path fill="#C2966C" d="M30.006,26.768c18.7,0,14.942-15.932,26.561-22.296C51.192,1.626,45.071,0,38.564,0
			C27.347,0,17.277,4.819,10.231,12.465C12.453,18.606,15.462,26.768,30.006,26.768z M75.493,27.471
			c-22.395,3.765,2.352,16.848-13.734,24.871c-17.322,8.639-40.046-6.566-36.503-12.996c3.061-5.555-10.584-8.058-25.078-4.329
			C0.071,36.187,0,37.368,0,38.565c0,1.318,0.069,2.619,0.201,3.902c18.222-1.521,26.968,2.279,4.765,14.989
			c1.812,3.208,4.059,6.14,6.678,8.696c6.883-3.953,18.864-5.062,47.764,4.828c10.65-6.863,17.723-18.802,17.723-32.416
			C77.13,34.707,76.546,30.987,75.493,27.471z"/>
		<circle opacity="0.15" fill="#FFFFFF" cx="41.094" cy="36.036" r="33.191"/>
		<circle opacity="0.15" fill="#FFFFFF" cx="44.817" cy="32.312" r="25.672"/>
	</g>
</g>
</svg>
