<?xml version="1.0" encoding="utf-8"?>
<!-- Generator: Adobe Illustrator 16.0.0, SVG Export Plug-In . SVG Version: 6.00 Build 0)  -->
<!DOCTYPE svg PUBLIC "-//W3C//DTD SVG 1.1//EN" "http://www.w3.org/Graphics/SVG/1.1/DTD/svg11.dtd">
<svg version="1.1" id="Layer_1" xmlns="http://www.w3.org/2000/svg" xmlns:xlink="http://www.w3.org/1999/xlink" x="0px" y="0px"
	 width="151.318px" height="151.433px" viewBox="0 0 151.318 151.433" enable-background="new 0 0 151.318 151.433"
	 xml:space="preserve">
<g>
	<circle fill="#008FD5" cx="75.679" cy="75.716" r="75.718"/>
	<path fill="#009BDF" d="M74.137,92.583c-12.349-12.35-55.174,2.567-55.174,13.152c0,13.916,31.758,28.551,43.307,23.419
		C73.816,124.022,86.488,104.933,74.137,92.583z M57.593,149.241c5.797,1.421,11.851,2.191,18.086,2.191
		c18.282,0,35.052-6.48,48.137-17.27C90.993,127.614,70.407,137.601,57.593,149.241z M128.458,21.453
		c-38.522-3.191-77.895-0.504-109.413,4.029c-4.452,5.014-8.235,10.626-11.238,16.694c41.639-1.247,84.843-0.498,86.539,8.015
		c1.729,8.677-52.582,12.575-92.619,9.378C0.695,64.32,0.094,69.231,0,74.268c42.226,6.014,102.706,7.61,151.318,4.506
		c0.04-1.016,0.079-2.032,0.079-3.058C151.397,54.43,142.6,35.209,128.458,21.453z M91.46,104.773
		c0,6.976,25.626,8.784,49.579,9.153c4.085-6.973,7.099-14.65,8.787-22.816C117.825,92.277,91.46,95.946,91.46,104.773z"/>
	<circle opacity="0.2" fill="#FFFFFF" cx="80.644" cy="70.75" r="65.165"/>
	<circle opacity="0.2" fill="#FFFFFF" cx="87.957" cy="63.438" r="50.405"/>
</g>
</svg>
