<?xml version="1.0" encoding="utf-8"?>
<!-- Generator: Adobe Illustrator 16.0.0, SVG Export Plug-In . SVG Version: 6.00 Build 0)  -->
<!DOCTYPE svg PUBLIC "-//W3C//DTD SVG 1.1//EN" "http://www.w3.org/Graphics/SVG/1.1/DTD/svg11.dtd">
<svg version="1.1" id="Layer_1" xmlns="http://www.w3.org/2000/svg" xmlns:xlink="http://www.w3.org/1999/xlink" x="0px" y="0px"
	 width="65.464px" height="65.491px" viewBox="0 0 65.464 65.491" enable-background="new 0 0 65.464 65.491" xml:space="preserve">
<g>
	<g>
		<circle fill="#DCDDDE" cx="32.718" cy="32.746" r="32.746"/>
	</g>
	<path fill="#D1D3D4" d="M16.511,26.734c9.441-4.599,6.715-13.919-1.322-21.615C6.052,10.929-0.028,21.116-0.028,32.746
		c0,4.351,0.867,8.495,2.408,12.292C11.179,39.89,6.393,31.663,16.511,26.734z M33.226,41.042
		C22.861,38.003,14.816,44.87,9.51,55.843c5.93,5.959,14.137,9.648,23.207,9.648c2.837,0,5.575-0.397,8.2-1.076
		C42.656,53.909,41.47,43.458,33.226,41.042z M42.312,1.435c-8.72,6.538-8.684,14.603,4.757,23.563
		c14.532,9.69-0.005,19.285,4.271,34.667c8.529-5.912,14.125-15.756,14.125-26.919C65.464,18,55.714,5.537,42.312,1.435z"/>
	<circle opacity="0.15" fill="#FFFFFF" cx="34.865" cy="30.599" r="28.182"/>
	<circle opacity="0.15" fill="#FFFFFF" cx="38.027" cy="27.436" r="21.799"/>
</g>
</svg>
