<?xml version="1.0" encoding="utf-8"?>
<!-- Generator: Adobe Illustrator 16.0.0, SVG Export Plug-In . SVG Version: 6.00 Build 0)  -->
<!DOCTYPE svg PUBLIC "-//W3C//DTD SVG 1.1//EN" "http://www.w3.org/Graphics/SVG/1.1/DTD/svg11.dtd">
<svg version="1.1" id="Layer_1" xmlns="http://www.w3.org/2000/svg" xmlns:xlink="http://www.w3.org/1999/xlink" x="0px" y="0px"
	 width="321.608px" height="160.039px" viewBox="0 0 321.608 160.039" enable-background="new 0 0 321.608 160.039"
	 xml:space="preserve">
<g>
	<g>
		<circle fill="#D2BB98" cx="160.804" cy="80.02" r="80.02"/>
		<path fill="#C6A87D" d="M163.171,49.016c0-4.648-3.769-8.418-8.418-8.418H91.179c-2.99,5.27-5.399,10.909-7.141,16.837h70.715
			C159.402,57.435,163.171,53.666,163.171,49.016z M182.901,35.343h44.297c-4.256-6.312-9.392-11.979-15.224-16.836h-29.073
			c-4.649,0-8.418,3.769-8.418,8.418C174.483,31.574,178.252,35.343,182.901,35.343z M114.822,115.084h57.876
			c4.649,0,8.419-3.769,8.419-8.418s-3.77-8.418-8.419-8.418h-57.876c-4.649,0-8.418,3.769-8.418,8.418
			S110.173,115.084,114.822,115.084z M240.119,69.542h-79.434c-4.649,0-8.418,3.77-8.418,8.418c0,4.649,3.769,8.419,8.418,8.419
			h79.863c0.166-2.1,0.275-4.216,0.275-6.359C240.824,76.466,240.567,72.974,240.119,69.542z M185.414,131.865H99.876
			c5.649,6.633,12.352,12.336,19.864,16.836h65.674c4.649,0,8.418-3.77,8.418-8.418
			C193.832,135.634,190.063,131.865,185.414,131.865z"/>
		<circle opacity="0.15" fill="#FFFFFF" cx="166.051" cy="74.772" r="68.869"/>
		<circle opacity="0.15" fill="#FFFFFF" cx="173.779" cy="67.044" r="53.27"/>
	</g>
	<path fill="#E6D9C6" d="M236.508,54.105c0.662,1.929,1.271,3.884,1.785,5.876c17.615,4.247,28.408,9.937,28.408,16.196
		c0,13.129-47.412,23.773-105.897,23.773c-58.485,0-105.896-10.645-105.896-23.773c0-6.259,10.793-11.949,28.407-16.196
		c0.515-1.993,1.124-3.947,1.785-5.877C52.475,59.905,31.218,69.348,31.218,80.02c0,17.639,58.018,31.939,129.586,31.939
		c71.569,0,129.587-14.3,129.587-31.939C290.391,69.348,269.134,59.905,236.508,54.105z"/>
	<path fill="#E6D9C6" d="M233.788,47.219c0.646,1.435,1.254,2.887,1.816,4.364c35.844,6.221,59.018,16.819,59.018,28.853
		c0,19.154-58.709,34.682-133.818,34.682c-75.108,0-133.817-15.528-133.817-34.682c0-12.034,23.174-22.632,59.018-28.853
		c0.562-1.477,1.171-2.93,1.816-4.364C35.349,54.07,0,68.107,0,84.326c0,22.955,70.792,41.563,160.804,41.563
		c90.013,0,160.805-18.608,160.805-41.563C321.608,68.107,286.26,54.07,233.788,47.219z"/>
</g>
</svg>
