<?xml version="1.0" encoding="utf-8"?>
<!-- Generator: Adobe Illustrator 16.0.0, SVG Export Plug-In . SVG Version: 6.00 Build 0)  -->
<!DOCTYPE svg PUBLIC "-//W3C//DTD SVG 1.1//EN" "http://www.w3.org/Graphics/SVG/1.1/DTD/svg11.dtd">
<svg version="1.1" id="Layer_1" xmlns="http://www.w3.org/2000/svg" xmlns:xlink="http://www.w3.org/1999/xlink" x="0px" y="0px"
	 width="286.23px" height="287.795px" viewBox="0 0 286.23 287.795" enable-background="new 0 0 286.23 287.795"
	 xml:space="preserve">
<g>
	<polygon fill="#FFD400" points="287.794,143.897 263.919,120.023 276.84,88.831 245.648,75.91 245.648,42.146 211.884,42.146 
		198.964,10.954 167.771,23.874 143.897,0 120.024,23.874 88.831,10.954 75.91,42.146 42.146,42.146 42.146,75.91 10.953,88.831 
		23.874,120.024 0,143.897 23.874,167.771 10.953,198.964 42.146,211.886 42.146,245.648 75.91,245.648 88.831,276.842 
		120.024,263.921 143.897,287.795 167.771,263.921 198.964,276.842 211.884,245.648 245.648,245.648 245.648,211.886 
		276.841,198.964 263.921,167.771 	"/>
	<g>
		<g>
			<g>
				<path fill="#FFDD00" d="M249.822,143.898c0,58.5-47.422,105.923-105.925,105.923c-58.501,0-105.923-47.423-105.923-105.923
					c0-58.502,47.422-105.926,105.923-105.926C202.4,37.973,249.822,85.396,249.822,143.898z"/>
			</g>
			<path fill="#FFF200" d="M116.329,70.612h104.009c-7.621-7.947-16.449-14.722-26.221-19.994h-77.788
				c-5.521,0-9.997,4.476-9.997,9.996C106.332,66.136,110.807,70.612,116.329,70.612z M127.924,170.117
				c0-2.479-2.01-4.493-4.492-4.493h-20.312c-3.362,0-6.087-2.725-6.087-6.084c0-3.365,2.725-6.089,6.087-6.089h47.393
				c6.349,0,11.498-5.147,11.498-11.5c0-6.35-5.149-11.498-11.498-11.498H116.66c-3.36,0-6.087-2.727-6.087-6.087
				c0-3.361,2.727-6.086,6.087-6.086h13.448c2.482,0,4.494-2.011,4.494-4.493s-2.012-4.494-4.494-4.494H43.786
				c-3.75,10.848-5.812,22.482-5.812,34.604c0,10.683,1.597,20.989,4.539,30.712h80.92
				C125.914,174.61,127.924,172.599,127.924,170.117z M143.896,90.628c0,1.553,1.261,2.812,2.812,2.812h45.32
				c2.529,0,4.579,2.05,4.579,4.579s-2.05,4.579-4.579,4.579h-12.355c-5.559,0-10.065,4.506-10.065,10.064
				c0,5.561,4.507,10.067,10.065,10.067h68.029c-2.557-12.598-7.363-24.372-13.958-34.915h-87.036
				C145.158,87.815,143.896,89.074,143.896,90.628z M130.302,211.122H62.039c6.278,7.635,13.614,14.364,21.766,19.992h46.497
				c5.521,0,9.996-4.477,9.996-9.996C140.298,215.597,135.823,211.122,130.302,211.122z M151.915,175.132
				c0,4.111,3.346,7.458,7.459,7.458h9.655c2.912,0,5.281,2.37,5.281,5.282s-2.369,5.281-5.281,5.281h-38.264
				c-2.252,0-4.083,1.83-4.083,4.082s1.832,4.084,4.083,4.084h48.196c2.914,0,5.281,2.367,5.281,5.281
				c0,2.912-2.367,5.28-5.281,5.28h-4.734c-4.113,0-7.458,3.348-7.458,7.46c0,4.113,3.345,7.459,7.458,7.459h35.565
				c18.445-14.681,31.868-35.376,37.316-59.129h-87.735C155.26,167.671,151.915,171.019,151.915,175.132z"/>
		</g>
		<circle opacity="0.3" fill="#FFFFFF" cx="150.843" cy="136.95" r="91.165"/>
		<circle opacity="0.3" fill="#FFFFFF" cx="161.073" cy="126.721" r="70.515"/>
	</g>
</g>
</svg>
