<?xml version="1.0" encoding="utf-8"?>
<!-- Generator: Adobe Illustrator 16.0.0, SVG Export Plug-In . SVG Version: 6.00 Build 0)  -->
<!DOCTYPE svg PUBLIC "-//W3C//DTD SVG 1.1//EN" "http://www.w3.org/Graphics/SVG/1.1/DTD/svg11.dtd">
<svg version="1.1" id="Layer_1" xmlns="http://www.w3.org/2000/svg" xmlns:xlink="http://www.w3.org/1999/xlink" x="0px" y="0px"
	 width="165.613px" height="165.613px" viewBox="0 0 165.613 165.613" enable-background="new 0 0 165.613 165.613"
	 xml:space="preserve">
<g>
	<circle fill="#B0DFDB" cx="82.806" cy="82.807" r="82.806"/>
	<path fill="#A0CBC9" d="M85.255,50.724c0-4.811-3.9-8.711-8.711-8.711h-65.79C7.661,47.465,5.169,53.3,3.366,59.435h73.178
		C81.355,59.435,85.255,55.535,85.255,50.724z M105.673,36.574h45.84c-4.404-6.531-9.719-12.396-15.754-17.423h-30.086
		c-4.811,0-8.711,3.9-8.711,8.711S100.863,36.574,105.673,36.574z M35.223,119.093h59.892c4.811,0,8.711-3.9,8.711-8.711
		c0-4.812-3.9-8.712-8.711-8.712H35.223c-4.811,0-8.711,3.9-8.711,8.712C26.512,115.192,30.412,119.093,35.223,119.093z
		 M164.884,71.964H82.684c-4.811,0-8.711,3.901-8.711,8.711c0,4.812,3.9,8.712,8.711,8.712h82.646
		c0.171-2.174,0.283-4.363,0.283-6.581C165.613,79.13,165.349,75.515,164.884,71.964z M108.273,136.458H19.756
		c5.846,6.863,12.782,12.765,20.556,17.422h67.961c4.812,0,8.713-3.9,8.713-8.711S113.084,136.458,108.273,136.458z"/>
	<circle opacity="0.2" fill="#FFFFFF" cx="88.236" cy="77.376" r="71.268"/>
	<circle opacity="0.2" fill="#FFFFFF" cx="96.234" cy="69.379" r="55.125"/>
</g>
</svg>
