<?xml version="1.0" encoding="utf-8"?>
<!-- Generator: Adobe Illustrator 16.0.0, SVG Export Plug-In . SVG Version: 6.00 Build 0)  -->
<!DOCTYPE svg PUBLIC "-//W3C//DTD SVG 1.1//EN" "http://www.w3.org/Graphics/SVG/1.1/DTD/svg11.dtd">
<svg version="1.1" id="Layer_1" xmlns="http://www.w3.org/2000/svg" xmlns:xlink="http://www.w3.org/1999/xlink" x="0px" y="0px"
	 width="111.616px" height="111.616px" viewBox="0 0 111.616 111.616" enable-background="new 0 0 111.616 111.616"
	 xml:space="preserve">
<g>
	<circle fill="#DD8328" cx="55.808" cy="55.808" r="55.808"/>
	<path fill="#C07221" d="M69.656,16.468c0-4.042-3.275-7.319-7.318-7.319H25.202c-5.908,3.885-11.031,8.858-15.089,14.638h52.225
		C66.381,23.787,69.656,20.51,69.656,16.468z M48.615,36.595c0,4.042,3.278,7.32,7.32,7.32h54.397
		c-1.125-5.185-2.96-10.103-5.416-14.639H55.935C51.893,29.276,48.615,32.553,48.615,36.595z M33.52,91.031
		c0,4.043,3.276,7.318,7.318,7.318H91.91c4.863-4.131,9.005-9.08,12.222-14.638H40.838C36.796,83.712,33.52,86.99,33.52,91.031z
		 M75.479,63.127c0-4.041-3.278-7.319-7.319-7.319H17.84c-4.042,0-7.319,3.278-7.319,7.319c0,4.043,3.277,7.318,7.319,7.318h50.319
		C72.2,70.445,75.479,67.17,75.479,63.127z"/>
	<circle opacity="0.1" fill="#FFFFFF" cx="59.468" cy="52.149" r="48.032"/>
	<circle opacity="0.1" fill="#FFFFFF" cx="64.857" cy="46.758" r="37.152"/>
</g>
</svg>
